<svg width="30" height="30" viewBox="0 0 30 30" fill="none" xmlns="http://www.w3.org/2000/svg">
<path d="M5.8814 15.8976L5.84441 15.8401L5.79995 15.7882C4.80498 14.6274 4.33337 13.3748 4.33337 12C4.33337 10.3213 4.89825 8.94691 6.03235 7.81281C7.21451 6.63065 8.59313 6.05692 10.2195 6.05692C11.7857 6.05692 13.1393 6.58589 14.3243 7.67212L15.0102 8.30085L15.6867 7.66198C16.8779 6.53697 18.2104 6 19.7236 6C21.3546 6 22.7347 6.56768 23.9158 7.73236C25.0979 8.89803 25.6667 10.2472 25.6667 11.8293C25.6667 13.4353 25.2599 14.7131 24.5009 15.7252L24.4549 15.7865L24.4188 15.8541C22.77 18.9411 19.7378 21.8135 15.2005 24.4324C10.2572 20.7914 7.20432 17.9516 5.8814 15.8976Z" stroke="#E6E5E4" stroke-width="2"/>
</svg>
