<svg width="48" height="48" viewBox="0 0 48 48" fill="none" xmlns="http://www.w3.org/2000/svg">
<rect width="48" height="48" rx="24" fill="#C2D8EF"/>
<path d="M10.508 25.598H7.148V24.744H10.508V25.598ZM12.9762 21.664L12.1502 21.3C12.4022 20.6187 12.8642 20.082 13.5362 19.69C14.2175 19.2887 14.9408 19.088 15.7062 19.088C16.6768 19.088 17.4842 19.3493 18.1282 19.872C18.7815 20.3947 19.1082 21.118 19.1082 22.042C19.1082 22.5927 19.0008 23.12 18.7862 23.624C18.5715 24.1187 18.2588 24.5807 17.8482 25.01C17.4375 25.43 17.0408 25.7893 16.6582 26.088C16.2848 26.3867 15.8368 26.7087 15.3142 27.054L13.6762 28.118H19.3742V29H12.0802V28.258L14.5302 26.522C15.6782 25.7007 16.4715 25.066 16.9102 24.618C17.3022 24.2167 17.6008 23.8247 17.8062 23.442C18.0208 23.05 18.1282 22.616 18.1282 22.14C18.1282 21.4587 17.8902 20.936 17.4142 20.572C16.9475 20.1987 16.3642 20.012 15.6642 20.012C15.0948 20.012 14.5582 20.1613 14.0542 20.46C13.5595 20.7587 13.2002 21.16 12.9762 21.664ZM20.5623 24.1C20.5623 23.1947 20.7023 22.3733 20.9823 21.636C21.2623 20.8987 21.7196 20.292 22.3543 19.816C22.989 19.3307 23.759 19.088 24.6643 19.088C25.3736 19.088 25.999 19.228 26.5403 19.508C27.0816 19.788 27.511 20.166 27.8283 20.642C28.1456 21.118 28.3836 21.65 28.5423 22.238C28.701 22.8167 28.7803 23.4373 28.7803 24.1C28.7803 24.772 28.6963 25.4067 28.5283 26.004C28.3696 26.592 28.127 27.124 27.8003 27.6C27.483 28.0667 27.0583 28.4353 26.5263 28.706C25.9943 28.9767 25.383 29.112 24.6923 29.112C23.9923 29.112 23.3716 28.972 22.8303 28.692C22.289 28.412 21.855 28.034 21.5283 27.558C21.211 27.0727 20.9683 26.5407 20.8003 25.962C20.6416 25.374 20.5623 24.7533 20.5623 24.1ZM21.7103 22.602C21.5983 23.0687 21.5423 23.568 21.5423 24.1C21.5423 24.632 21.5983 25.136 21.7103 25.612C21.8316 26.0787 22.0136 26.5127 22.2563 26.914C22.499 27.3153 22.8256 27.6327 23.2363 27.866C23.6563 28.0993 24.1416 28.216 24.6923 28.216C25.2616 28.216 25.7516 28.0993 26.1623 27.866C26.5823 27.6327 26.9043 27.3153 27.1283 26.914C27.3616 26.5127 27.5296 26.0787 27.6323 25.612C27.7443 25.1453 27.8003 24.6413 27.8003 24.1C27.8003 23.5587 27.7443 23.0547 27.6323 22.588C27.5296 22.1213 27.3616 21.6873 27.1283 21.286C26.895 20.8847 26.5683 20.5673 26.1483 20.334C25.7283 20.1007 25.2336 19.984 24.6643 19.984C24.1043 19.984 23.6143 20.1007 23.1943 20.334C22.7836 20.5673 22.4616 20.8893 22.2283 21.3C21.995 21.7013 21.8223 22.1353 21.7103 22.602ZM30.8056 23.162C30.3296 22.7233 30.0916 22.1633 30.0916 21.482C30.0916 20.8007 30.3296 20.2453 30.8056 19.816C31.2909 19.3773 31.8789 19.158 32.5696 19.158C33.5309 19.158 34.2683 19.5687 34.7816 20.39C34.9496 20.698 35.0336 21.062 35.0336 21.482C35.0336 22.1727 34.7956 22.7327 34.3196 23.162C33.8436 23.5913 33.2603 23.806 32.5696 23.806C31.8789 23.806 31.2909 23.5913 30.8056 23.162ZM31.4496 20.39C31.1416 20.6887 30.9876 21.0527 30.9876 21.482C30.9876 21.9113 31.1416 22.28 31.4496 22.588C31.7576 22.8867 32.1309 23.036 32.5696 23.036C33.0269 23.036 33.4003 22.8913 33.6896 22.602C33.9883 22.3127 34.1376 21.9393 34.1376 21.482C34.1376 21.034 33.9883 20.6653 33.6896 20.376C33.3909 20.0773 33.0176 19.928 32.5696 19.928C32.1309 19.928 31.7576 20.082 31.4496 20.39ZM32.2056 29.168L31.5196 28.762L38.7716 18.948L39.4436 19.438L32.2056 29.168ZM36.6156 28.412C36.1396 27.9733 35.9016 27.4133 35.9016 26.732C35.9016 26.0507 36.1396 25.4953 36.6156 25.066C37.1009 24.6273 37.6889 24.408 38.3796 24.408C39.0703 24.408 39.6536 24.6227 40.1296 25.052C40.6056 25.4813 40.8436 26.0413 40.8436 26.732C40.8436 27.4133 40.6009 27.9733 40.1156 28.412C39.6396 28.8413 39.0609 29.056 38.3796 29.056C37.6889 29.056 37.1009 28.8413 36.6156 28.412ZM37.2596 25.64C36.9516 25.9387 36.7976 26.3027 36.7976 26.732C36.7976 27.1613 36.9516 27.53 37.2596 27.838C37.5676 28.1367 37.9409 28.286 38.3796 28.286C38.8276 28.286 39.2009 28.1413 39.4996 27.852C39.7983 27.5533 39.9476 27.18 39.9476 26.732C39.9476 26.3027 39.7936 25.9387 39.4856 25.64C39.1776 25.332 38.8089 25.178 38.3796 25.178C37.9409 25.178 37.5676 25.332 37.2596 25.64Z" fill="#0F213A"/>
</svg>
