<svg width="48" height="48" viewBox="0 0 48 48" fill="none" xmlns="http://www.w3.org/2000/svg">
<rect width="48" height="48" rx="24" fill="#AF1685"/>
<path d="M32.7233 19.7302H28.6333C28.8432 19.5985 29.0421 19.4499 29.2281 19.2861C29.5085 19.0363 29.7344 18.7312 29.8917 18.3901C30.0489 18.049 30.1342 17.6791 30.142 17.3036C30.1542 16.8904 30.0819 16.4792 29.9296 16.095C29.7772 15.7108 29.548 15.3618 29.2561 15.0692C28.9641 14.7767 28.6155 14.5469 28.2316 14.3938C27.8477 14.2407 27.4366 14.1676 27.0234 14.179C26.6479 14.1869 26.278 14.2721 25.9369 14.4294C25.5958 14.5866 25.2908 14.8125 25.0409 15.093C24.5817 15.6349 24.2286 16.2583 24 16.9308C23.7719 16.2588 23.4195 15.6357 22.9612 15.094C22.7111 14.8131 22.4058 14.5869 22.0644 14.4294C21.7229 14.272 21.3526 14.1867 20.9766 14.179C20.5632 14.1671 20.1518 14.2398 19.7675 14.3925C19.3832 14.5453 19.0341 14.7749 18.7417 15.0674C18.4494 15.3599 18.2198 15.709 18.0672 16.0934C17.9145 16.4777 17.842 16.8892 17.8541 17.3026C17.8619 17.6781 17.9471 18.048 18.1044 18.3891C18.2617 18.7302 18.4876 19.0353 18.768 19.2851C18.9538 19.4492 19.1527 19.5977 19.3628 19.7292H15.2767C15.0944 19.7292 14.9138 19.7652 14.7454 19.835C14.577 19.9048 14.4239 20.0071 14.295 20.1361C14.1662 20.265 14.064 20.4181 13.9943 20.5866C13.9246 20.7551 13.8888 20.9357 13.8889 21.118V24.2901C13.8889 24.6582 14.0351 25.0112 14.2954 25.2715C14.5557 25.5317 14.9086 25.6779 15.2767 25.6779H15.475V32.2204C15.475 32.5885 15.6212 32.9415 15.8815 33.2017C16.1417 33.462 16.4947 33.6082 16.8628 33.6082H31.1373C31.5053 33.6082 31.8583 33.462 32.1186 33.2017C32.3789 32.9415 32.5251 32.5885 32.5251 32.2204V25.6779H32.7233C33.0914 25.6779 33.4444 25.5317 33.7047 25.2715C33.9649 25.0112 34.1111 24.6582 34.1111 24.2901V21.118C34.1111 20.75 33.9649 20.397 33.7047 20.1367C33.4444 19.8764 33.0914 19.7302 32.7233 19.7302ZM24.7703 18.6398C24.9933 17.4384 25.3938 16.4838 25.9291 15.8791C26.0723 15.721 26.2466 15.5941 26.441 15.5063C26.6354 15.4184 26.8458 15.3716 27.0591 15.3686H27.1137C27.3603 15.3686 27.6044 15.4181 27.8315 15.5141C28.0587 15.6102 28.2642 15.7508 28.4361 15.9277C28.6079 16.1047 28.7425 16.3142 28.8319 16.5441C28.9212 16.7739 28.9636 17.0194 28.9565 17.2659C28.9531 17.4794 28.9058 17.69 28.8174 17.8844C28.7291 18.0788 28.6016 18.253 28.443 18.396C27.3803 19.3337 25.5782 19.6142 24.6285 19.6955C24.6533 19.409 24.6939 19.0443 24.7703 18.6398ZM19.5839 15.9088C19.9298 15.5641 20.398 15.3699 20.8864 15.3686H20.9409C21.1545 15.3719 21.365 15.4193 21.5594 15.5076C21.7539 15.596 21.928 15.7234 22.071 15.8821C23.0087 16.9447 23.2893 18.7469 23.3706 19.6965C23.0841 19.6717 22.7193 19.6291 22.3188 19.5548C21.1174 19.3337 20.1628 18.9312 19.5581 18.395C19.3992 18.2523 19.2715 18.0784 19.183 17.8841C19.0944 17.6898 19.047 17.4794 19.0436 17.2659C19.0368 17.0149 19.0811 16.7651 19.174 16.5317C19.2669 16.2984 19.4064 16.0865 19.5839 15.9088ZM15.0785 24.2901V21.118C15.0785 21.0654 15.0993 21.015 15.1365 20.9778C15.1737 20.9407 15.2241 20.9198 15.2767 20.9198H23.4053V24.4884H15.2767C15.2241 24.4884 15.1737 24.4675 15.1365 24.4303C15.0993 24.3931 15.0785 24.3427 15.0785 24.2901ZM16.6645 32.2204V25.6779H23.4053V32.4187H16.8628C16.8102 32.4187 16.7598 32.3978 16.7226 32.3606C16.6854 32.3234 16.6645 32.273 16.6645 32.2204ZM31.3355 32.2204C31.3355 32.273 31.3147 32.3234 31.2775 32.3606C31.2403 32.3978 31.1899 32.4187 31.1373 32.4187H24.5948V25.6779H31.3355V32.2204ZM32.9216 24.2901C32.9216 24.3427 32.9007 24.3931 32.8635 24.4303C32.8263 24.4675 32.7759 24.4884 32.7233 24.4884H24.5948V20.9198H32.7233C32.7759 20.9198 32.8263 20.9407 32.8635 20.9778C32.9007 21.015 32.9216 21.0654 32.9216 21.118V24.2901Z" fill="white"/>
</svg>
